# ProBuilder 5.0.3
# https://unity3d.com/unity/features/worldbuilding/probuilder
# 06/06/2023 19:09:23

mtllib ./Prism_2.mtl
o Prism 2

g Prism (1)
v 0 0 0
v -5 0 0
v -2.5 1.5 0
v -5 0 4
v -2.5 1.5 4
v 0 0 4

vt 0 0
vt 5 0
vt 2.5 1.5
vt 4.287464 0
vt 4.287464 4
vt 1.371989 0
vt 1.371989 4
vt -5 0
vt -2.5 1.5
vt 0 4
vt 2.915476 4
vt 2.915476 0
vt -5 4

vn 0 0 -1
vn -0.5144957 0.8574929 0
vn 0 0 1
vn 0.5144957 0.8574929 0
vn 0 -1 0

usemtl ProBuilder_Default_HDRP
f 1/1/1 2/2/1 3/3/1
f 4/8/3 6/1/3 5/9/3
f 3/6/2 2/4/2 4/5/2
f 4/5/2 5/7/2 3/6/2
f 5/11/4 6/10/4 1/1/4
f 1/1/4 3/12/4 5/11/4
f 4/13/5 2/8/5 1/1/5
f 1/1/5 6/10/5 4/13/5

