# ProBuilder 5.0.3
# https://unity3d.com/unity/features/worldbuilding/probuilder
# 06/06/2023 19:11:14

mtllib ./Cube.mtl
o Cube

g Cube
v 22.25 -1 28.125
v -22.25 -1 28.125
v 22.25 1 28.125
v -22.25 1 28.125
v -22.25 -1 -28.125
v -22.25 1 -28.125
v 22.25 -1 -28.125
v 22.25 1 -28.125

vt 22.25 -1
vt -22.25 -1
vt 22.25 1
vt -22.25 1
vt 28.125 -1
vt -28.125 -1
vt 28.125 1
vt -28.125 1
vt -22.25 28.125
vt 22.25 28.125
vt -22.25 -28.125
vt 22.25 -28.125

vn 0 0 1
vn -1 0 0
vn 0 0 -1
vn 1 0 0
vn 0 1 0
vn 0 -1 0

usemtl ProBuilder_Default_HDRP
f 3/3/1 4/4/1 2/2/1 1/1/1
f 4/7/2 6/8/2 5/6/2 2/5/2
f 6/3/3 8/4/3 7/2/3 5/1/3
f 8/7/4 3/8/4 1/6/4 7/5/4
f 8/11/5 6/12/5 4/10/5 3/9/5
f 1/10/6 2/9/6 5/11/6 7/12/6

